<svg width="33" height="49" viewBox="0 0 33 49" fill="none" xmlns="http://www.w3.org/2000/svg">
<g clip-path="url(#clip0_16_56)">
<path d="M8.25236 49C12.8051 49 16.5 45.3413 16.5 40.8333V32.6666H8.25236C3.69966 32.6666 0.00471497 36.3253 0.00471497 40.8333C0.00471497 45.3413 3.69966 49 8.25236 49Z" fill="#0ACF83"/>
<path d="M0.00471497 24.5C0.00471497 19.992 3.69966 16.3334 8.25236 16.3334H16.5V32.6667H8.25236C3.69966 32.6667 0.00471497 29.008 0.00471497 24.5Z" fill="#A259FF"/>
<path d="M0.00456238 8.16667C0.00456238 3.65867 3.69951 0 8.25221 0H16.4998V16.3333H8.25221C3.69951 16.3333 0.00456238 12.6747 0.00456238 8.16667Z" fill="#F24E1E"/>
<path d="M16.5 0H24.7476C29.3003 0 32.9953 3.65867 32.9953 8.16667C32.9953 12.6747 29.3003 16.3333 24.7476 16.3333H16.5V0Z" fill="#FF7262"/>
<path d="M32.9953 24.5C32.9953 29.008 29.3003 32.6667 24.7476 32.6667C20.1949 32.6667 16.5 29.008 16.5 24.5C16.5 19.992 20.1949 16.3334 24.7476 16.3334C29.3003 16.3334 32.9953 19.992 32.9953 24.5Z" fill="#1ABCFE"/>
</g>
<defs>
<clipPath id="clip0_16_56">
<rect width="33" height="49" fill="white"/>
</clipPath>
</defs>
</svg>
