<svg width="54" height="54" viewBox="0 0 54 54" fill="none" xmlns="http://www.w3.org/2000/svg">
<path d="M10.0994 47.4768L6.16782 3.375H49.3678L45.431 47.4698L27.7416 52.375L10.0994 47.4768Z" fill="#F7DF1E"/>
<path d="M27 48.4929L41.2967 44.5296L44.66 6.85291H27V48.4929Z" fill="#CCBB36"/>
<path d="M14 15H22.8448V38.2L16.9483 35.3M40.5343 15H33.1637C32.7727 15 32.3978 15.1528 32.1213 15.4247C31.8449 15.6966 31.6896 16.0654 31.6896 16.45V25.15C31.6896 25.5346 31.8449 25.9034 32.1213 26.1753C32.3978 26.4472 32.7727 26.6 33.1637 26.6H37.3591C37.5701 26.6 37.7786 26.6446 37.9706 26.7307C38.1626 26.8169 38.3335 26.9425 38.4718 27.0993C38.6102 27.256 38.7127 27.4401 38.7725 27.6391C38.8323 27.8381 38.848 28.0475 38.8184 28.253L37.5861 36.75L31.6896 38.2" stroke="white" stroke-width="5" stroke-linecap="square" stroke-linejoin="round"/>
</svg>
