<svg width="46" height="46" viewBox="0 0 46 46" fill="none" xmlns="http://www.w3.org/2000/svg">
<path d="M41.7019 7.23058L33.4132 3.24008C32.9452 3.01439 32.4185 2.93991 31.9062 3.02697C31.3938 3.11403 30.9213 3.35831 30.5541 3.72596L3.42125 28.4625C3.09205 28.7612 2.89499 29.1784 2.87342 29.6224C2.85185 30.0664 3.00755 30.5008 3.30625 30.83C3.34218 30.8688 3.37812 30.9062 3.41693 30.9407L5.63212 32.9532C5.92158 33.2167 6.29417 33.3704 6.68518 33.3877C7.07619 33.4051 7.46093 33.2849 7.77256 33.0481L40.4541 8.26558C40.701 8.07826 40.9952 7.96357 41.3037 7.9344C41.6122 7.90524 41.9227 7.96277 42.2003 8.10052C42.4779 8.23826 42.7115 8.45075 42.8749 8.71407C43.0382 8.97739 43.1249 9.28108 43.125 9.59096V9.49464C43.125 9.02156 42.9914 8.5581 42.7396 8.15757C42.4879 7.75705 42.1282 7.43573 41.7019 7.23058Z" fill="#0065A9"/>
<path d="M41.7019 38.7693L33.4132 42.7613C32.945 42.9863 32.4185 43.0605 31.9063 42.9734C31.3942 42.8864 30.9217 42.6425 30.5541 42.2754L3.42125 17.5375C3.09205 17.2387 2.89499 16.8215 2.87342 16.3775C2.85185 15.9335 3.00755 15.4991 3.30625 15.1699C3.34218 15.1311 3.37812 15.0937 3.41693 15.0592L5.63212 13.0467C5.92187 12.7822 6.29532 12.6277 6.68729 12.6104C7.07927 12.5931 7.46489 12.7139 7.77687 12.9518L40.4541 37.7343C40.701 37.9217 40.9952 38.0364 41.3037 38.0655C41.6122 38.0947 41.9227 38.0371 42.2003 37.8994C42.4779 37.7617 42.7115 37.5492 42.8749 37.2859C43.0382 37.0225 43.1249 36.7188 43.125 36.409V36.5125C43.1234 36.9843 42.9892 37.4461 42.7375 37.8453C42.4858 38.2444 42.127 38.5646 41.7019 38.7693Z" fill="#007ACC"/>
<path d="M33.4132 42.7613C32.945 42.9863 32.4185 43.0605 31.9063 42.9734C31.3942 42.8864 30.9217 42.6425 30.5541 42.2754C30.7605 42.4791 31.0225 42.6174 31.3071 42.6729C31.5918 42.7284 31.8866 42.6987 32.1544 42.5874C32.4222 42.4761 32.6513 42.2882 32.8128 42.0473C32.9744 41.8065 33.0612 41.5233 33.0625 41.2332V4.76671C33.0627 4.47531 32.9765 4.1904 32.8147 3.94806C32.6528 3.70572 32.4227 3.51687 32.1535 3.40542C31.8843 3.29396 31.588 3.26493 31.3022 3.32199C31.0165 3.37906 30.7541 3.51965 30.5483 3.72596C30.9156 3.35845 31.3881 3.11415 31.9003 3.02685C32.4125 2.93955 32.9392 3.01356 33.4075 3.23865L41.6947 7.2234C42.1223 7.42752 42.4835 7.7484 42.7366 8.14901C42.9897 8.54961 43.1243 9.01361 43.125 9.48746V36.5125C43.1251 36.9859 42.9914 37.4498 42.7394 37.8506C42.4874 38.2515 42.1272 38.5729 41.7004 38.778L33.4132 42.7613Z" fill="#1F9CF0"/>
</svg>
