<svg width="50" height="51" viewBox="0 0 50 51" fill="none" xmlns="http://www.w3.org/2000/svg">
<path d="M39.5833 23.8168H10.4167M39.5833 23.8168C41.8845 23.8168 43.75 25.6823 43.75 27.9835V40.4835C43.75 42.7847 41.8845 44.6501 39.5833 44.6501H10.4167C8.11548 44.6501 6.25 42.7847 6.25 40.4835V27.9835C6.25 25.6823 8.11548 23.8168 10.4167 23.8168M39.5833 23.8168V19.6501C39.5833 17.349 37.7179 15.4835 35.4167 15.4835M10.4167 23.8168V19.6501C10.4167 17.349 12.2821 15.4835 14.5833 15.4835M14.5833 15.4835V11.3168C14.5833 9.01563 16.4488 7.15015 18.75 7.15015H31.25C33.5512 7.15015 35.4167 9.01563 35.4167 11.3168V15.4835M14.5833 15.4835H35.4167" stroke="url(#paint0_linear_626_565)" stroke-width="3" stroke-linecap="round" stroke-linejoin="round"/>
<defs>
<linearGradient id="paint0_linear_626_565" x1="39.6949" y1="25.9001" x2="6.25" y2="25.9001" gradientUnits="userSpaceOnUse">
<stop stop-color="#FFE600"/>
<stop offset="1" stop-color="#F54601" stop-opacity="0.921357"/>
</linearGradient>
</defs>
</svg>
