<svg width="76" height="84" viewBox="0 0 76 84" fill="none" xmlns="http://www.w3.org/2000/svg">
<path d="M5.42165 34.3349L34.939 4.97753C42.8104 0.305941 49.0446 3.67098 51.0177 5.93744C55.5772 10.497 66.4098 20.5009 70.7759 25.8557C75.1421 31.2104 72.9988 38.1467 70.8559 40.4944L51.4177 59.9326L42.6185 51.0534L60.5369 33.295L42.6185 15.2966L15.8208 42.1742L42.6185 68.7319L51.4177 60.0126L60.4569 68.9718C59.6569 69.7718 57.7864 71.9051 51.0177 78.331C44.6983 84.3305 36.539 80.7841 33.9792 78.331C26.9399 71.3716 11.3393 56.7005 5.74178 49.9335C0.382105 43.4541 3.26188 36.6547 5.42165 34.3349Z" stroke="white" stroke-width="4"/>
</svg>
