<svg width="35" height="35" viewBox="0 0 35 35" fill="none" xmlns="http://www.w3.org/2000/svg">
<path fill-rule="evenodd" clip-rule="evenodd" d="M13.0007 12.1957H19.5002V15.4332C20.4365 13.5712 22.8375 11.8982 26.4443 11.8982C33.3585 11.8982 35 15.6047 35 22.4052V34.9999H28V23.9539C28 20.0812 27.0638 17.8972 24.6803 17.8972C21.3745 17.8972 20.0007 20.2509 20.0007 23.9522V34.9999H13.0007V12.1957V12.1957ZM0.9975 34.7024H7.9975V11.8982H0.9975V34.7024V34.7024ZM9.00025 4.46244C9.00051 5.04917 8.88415 5.6301 8.65793 6.17147C8.43171 6.71283 8.10014 7.20384 7.6825 7.61594C6.8362 8.45703 5.69067 8.92783 4.4975 8.92494C3.30643 8.92414 2.16354 8.45454 1.316 7.61769C0.89987 7.20419 0.569425 6.71263 0.343601 6.17119C0.117778 5.62976 0.00101348 5.04908 0 4.46244C0 3.27769 0.4725 2.14369 1.31775 1.30719C2.16455 0.469216 3.30792 -0.000584654 4.49925 -6.05972e-05C5.69275 -6.05972e-05 6.83725 0.470689 7.6825 1.30719C8.526 2.14369 9.00025 3.27769 9.00025 4.46244Z" fill="#0077B7"/>
</svg>
