<svg width="86" height="87" viewBox="0 0 86 87" fill="none" xmlns="http://www.w3.org/2000/svg">
<path d="M16.1625 73.2687L10.1934 6.29242H75.8063L69.8292 73.2581L42.96 80.7076L16.1625 73.2687Z" fill="#353B3F"/>
<path d="M43 75.0148L64.7133 68.9951L69.8214 11.7698H43V75.0148Z" fill="#5B6A71"/>
<path d="M43 36.0346H53.8699L54.6194 27.623H43V19.4081H63.5971L63.4004 21.6113L61.3832 44.2495H43V36.0346V36.0346Z" fill="white"/>
<path d="M43.0506 57.3678L43.0134 57.3784L33.8657 54.9068L33.281 48.3556H25.0342L26.185 61.2533L43.0108 65.9255L43.0506 65.9149V57.3678V57.3678Z" fill="#EBEBEB"/>
<path d="M53.1712 43.9014L52.1825 54.9015L43.0215 57.3732V65.9203L59.8606 61.2534L59.9855 59.8661L61.4127 43.9014H53.1712V43.9014Z" fill="white"/>
<path d="M43.0291 19.4081V27.623H23.1869L23.0221 25.7759L22.6474 21.6113L22.4507 19.4081H43.0291V19.4081ZM42.9999 36.0346V44.2495H33.9664L33.8017 42.4024L33.4296 38.2378L33.2329 36.0346H42.9999V36.0346Z" fill="#EBEBEB"/>
</svg>
