<svg width="86" height="87" viewBox="0 0 86 87" fill="none" xmlns="http://www.w3.org/2000/svg">
<path d="M76.8943 15.5054L61.8628 8.41646C61.0139 8.01553 60.0587 7.88323 59.1297 8.03788C58.2006 8.19254 57.3437 8.62649 56.6776 9.27959L7.47216 53.2226C6.87516 53.7533 6.51779 54.4945 6.47868 55.2832C6.43957 56.072 6.72192 56.8436 7.26361 57.4285C7.32878 57.4974 7.39396 57.5638 7.46434 57.6251L11.4816 61.2002C12.0065 61.6682 12.6822 61.9413 13.3913 61.9721C14.1004 62.0029 14.7981 61.7894 15.3633 61.3687L74.6315 17.344C75.0791 17.0112 75.6127 16.8075 76.1722 16.7557C76.7317 16.7039 77.2948 16.8061 77.7982 17.0508C78.3016 17.2955 78.7253 17.6729 79.0215 18.1407C79.3178 18.6085 79.4749 19.148 79.4751 19.6984V19.5273C79.475 18.6869 79.2328 17.8636 78.7762 17.1521C78.3197 16.4406 77.6673 15.8698 76.8943 15.5054V15.5054Z" fill="#0065A9"/>
<path d="M76.8943 72.3048L61.8628 79.527C61.0137 79.9342 60.0588 80.0683 59.13 79.9108C58.2012 79.7534 57.3443 79.3121 56.6776 78.648L7.47216 33.892C6.87516 33.3516 6.51779 32.5967 6.47868 31.7934C6.43957 30.9901 6.72192 30.2042 7.26361 29.6086C7.32878 29.5384 7.39396 29.4708 7.46434 29.4083L11.4816 25.7673C12.0071 25.2887 12.6843 25.0093 13.3952 24.9779C14.106 24.9466 14.8053 25.1652 15.3711 25.5957L74.6315 70.4323C75.0791 70.7712 75.6127 70.9787 76.1722 71.0314C76.7317 71.0842 77.2948 70.9801 77.7982 70.7309C78.3016 70.4817 78.7253 70.0972 79.0215 69.6209C79.3178 69.1445 79.4749 68.595 79.4751 68.0344V68.2216C79.4723 69.0753 79.2288 69.9109 78.7724 70.6329C78.316 71.355 77.6651 71.9343 76.8943 72.3048V72.3048Z" fill="#007ACC"/>
<path d="M61.7144 79.5295C60.8582 79.9344 59.8952 80.0678 58.9586 79.9112C58.022 79.7546 57.1579 79.3158 56.4856 78.6553C56.8631 79.0219 57.3422 79.2707 57.8628 79.3705C58.3835 79.4704 58.9225 79.4169 59.4123 79.2166C59.9021 79.0164 60.321 78.6784 60.6164 78.245C60.9118 77.8116 61.0707 77.3021 61.073 76.7802V11.1695C61.0734 10.6452 60.9157 10.1326 60.6198 9.69658C60.3238 9.26056 59.903 8.92077 59.4106 8.72025C58.9183 8.51972 58.3765 8.46748 57.8539 8.57015C57.3313 8.67282 56.8514 8.92577 56.4751 9.29697C57.1468 8.63574 58.0108 8.1962 58.9476 8.03913C59.8843 7.88206 60.8475 8.01522 61.7039 8.4202L76.8594 15.5896C77.6414 15.9568 78.302 16.5342 78.7648 17.2549C79.2276 17.9757 79.4739 18.8105 79.4751 19.6631V68.2866C79.4753 69.1385 79.2309 69.9731 78.7699 70.6943C78.309 71.4154 77.6504 71.9938 76.8699 72.3627L61.7144 79.5295Z" fill="#1F9CF0"/>
</svg>
