<svg width="28" height="28" viewBox="0 0 28 28" fill="none" xmlns="http://www.w3.org/2000/svg">
<path d="M0.587446 0.572383C0.773188 0.390946 0.993842 0.246994 1.23677 0.148775C1.4797 0.0505558 1.74013 0 2.00314 0C2.26615 0 2.52658 0.0505558 2.76951 0.148775C3.01243 0.246994 3.23309 0.390946 3.41883 0.572383L14.0005 10.8867L24.5822 0.572383C24.7681 0.391239 24.9888 0.247547 25.2317 0.149513C25.4746 0.051478 25.735 0.00102006 25.9979 0.00102006C26.2608 0.00102006 26.5212 0.051478 26.7641 0.149513C27.007 0.247547 27.2277 0.391239 27.4136 0.572383C27.5995 0.753528 27.747 0.968577 27.8476 1.20525C27.9482 1.44193 28 1.6956 28 1.95178C28 2.20795 27.9482 2.46162 27.8476 2.6983C27.747 2.93497 27.5995 3.15002 27.4136 3.33117L16.8279 13.6415L27.4136 23.9519C27.5995 24.1331 27.747 24.3481 27.8476 24.5848C27.9482 24.8215 28 25.0751 28 25.3313C28 25.5875 27.9482 25.8411 27.8476 26.0778C27.747 26.3145 27.5995 26.5296 27.4136 26.7107C27.2277 26.8918 27.007 27.0355 26.7641 27.1336C26.5212 27.2316 26.2608 27.2821 25.9979 27.2821C25.735 27.2821 25.4746 27.2316 25.2317 27.1336C24.9888 27.0355 24.7681 26.8918 24.5822 26.7107L14.0005 16.3964L3.41883 26.7107C3.23292 26.8918 3.01221 27.0355 2.76931 27.1336C2.5264 27.2316 2.26606 27.2821 2.00314 27.2821C1.74022 27.2821 1.47988 27.2316 1.23697 27.1336C0.994066 27.0355 0.773357 26.8918 0.587446 26.7107C0.401535 26.5296 0.254062 26.3145 0.153447 26.0778C0.0528327 25.8411 0.00104691 25.5875 0.00104691 25.3313C0.00104691 25.0751 0.0528327 24.8215 0.153447 24.5848C0.254062 24.3481 0.401535 24.1331 0.587446 23.9519L11.1731 13.6415L0.587446 3.33117C0.401234 3.15019 0.253494 2.93519 0.15269 2.69849C0.0518862 2.46179 0 2.20804 0 1.95178C0 1.69551 0.0518862 1.44176 0.15269 1.20506C0.253494 0.96836 0.401234 0.753363 0.587446 0.572383Z" fill="white"/>
</svg>
