<svg width="25" height="37" viewBox="0 0 25 37" fill="none" xmlns="http://www.w3.org/2000/svg">
<path fill-rule="evenodd" clip-rule="evenodd" d="M7.11704 0.0738525C3.44657 0.0738525 0.494594 3.19057 0.494594 7.00866C0.494594 9.32987 1.58659 11.3915 3.26507 12.65C2.4 13.306 1.6988 14.1579 1.21768 15.1376C0.736571 16.1173 0.488923 17.1974 0.494594 18.2914C0.494594 20.6141 1.58659 22.6742 3.26507 23.9327C2.4 24.5887 1.6988 25.4407 1.21768 26.4203C0.736571 27.4 0.488923 28.4801 0.494594 29.5741C0.494594 33.3922 3.44657 36.5089 7.11704 36.5089C10.786 36.5089 13.7395 33.3922 13.7395 29.5741V23.7111C14.8995 24.69 16.3617 25.2266 17.8719 25.2277C21.5424 25.2262 24.4944 22.1095 24.4944 18.2914C24.5004 17.1973 24.2529 16.1171 23.7718 15.1374C23.2906 14.1576 22.5893 13.3057 21.7239 12.65C22.589 11.9941 23.2902 11.1421 23.7713 10.1624C24.2524 9.18277 24.5001 8.10264 24.4944 7.00866C24.4944 3.19057 21.5424 0.0738525 17.8719 0.0738525H7.11704ZM2.98307 7.00866C2.98307 4.59332 4.84606 2.65922 7.11704 2.65922H11.2495V11.3581H7.11704C4.84606 11.3581 2.98307 9.42248 2.98307 7.00866ZM17.8719 11.3566H13.7395V2.6577H17.8719C20.1444 2.6577 22.0059 4.59332 22.0059 7.00866C22.0059 9.42248 20.1444 11.3566 17.8719 11.3566ZM2.98457 18.2914C2.98457 15.8776 4.84756 13.9419 7.11854 13.9419H11.251V22.6408H7.11704C4.84456 22.6408 2.98307 20.7052 2.98307 18.2914H2.98457ZM13.7395 18.2914C13.7395 15.8776 15.6025 13.9419 17.8734 13.9419C20.1459 13.9419 22.0074 15.876 22.0074 18.2914C22.0074 20.7052 20.1459 22.6408 17.8734 22.6408C15.6025 22.6408 13.741 20.7067 13.741 18.2914H13.7395ZM2.98457 29.5741C2.98457 27.1603 4.84756 25.2262 7.11854 25.2262H11.251V29.5741C11.251 31.9894 9.39102 33.9235 7.11854 33.9235C4.84756 33.9235 2.98457 31.9894 2.98457 29.5741Z" fill="black"/>
</svg>
