<svg width="35" height="34" viewBox="0 0 35 34" fill="none" xmlns="http://www.w3.org/2000/svg">
<path fill-rule="evenodd" clip-rule="evenodd" d="M17.0389 0C7.62771 0 0 7.71988 0 17.2448C0 24.8627 4.88071 31.3273 11.6525 33.6096C12.505 33.7652 12.8125 33.2344 12.8125 32.778C12.8125 32.3682 12.7988 31.2824 12.7937 29.8456C8.05308 30.8865 7.052 27.5322 7.052 27.5322C6.27983 25.5405 5.16087 25.0097 5.16087 25.0097C3.61483 23.9394 5.27875 23.9636 5.27875 23.9636C6.9905 24.0847 7.88738 25.741 7.88738 25.741C9.40779 28.376 11.878 27.6152 12.845 27.1743C13.0004 26.0591 13.4446 25.2984 13.9298 24.8679C10.1475 24.4339 6.1705 22.9539 6.1705 16.344C6.1705 14.4646 6.83504 12.9224 7.91983 11.719C7.74729 11.2816 7.15792 9.52667 8.08896 7.15451C8.08896 7.15451 9.51883 6.68941 12.7732 8.9198C14.1631 8.53712 15.5968 8.34179 17.0372 8.33886C18.4776 8.34122 19.9114 8.53657 21.3012 8.9198C24.5573 6.68769 25.9855 7.15451 25.9855 7.15451C26.9165 9.52667 26.3323 11.2816 26.1546 11.719C27.2479 12.9224 27.9039 14.4629 27.9039 16.344C27.9039 22.9712 23.9235 24.427 20.1276 24.8541C20.734 25.3866 21.2807 26.4378 21.2807 28.0457C21.2807 30.3522 21.2602 32.2126 21.2602 32.778C21.2602 33.2396 21.5643 33.7756 22.4338 33.6061C29.2022 31.3204 34.0778 24.861 34.0778 17.2448C34.0778 7.71988 26.4501 0 17.0389 0Z" fill="black"/>
</svg>
