<svg width="35" height="35" viewBox="0 0 35 35" fill="none" xmlns="http://www.w3.org/2000/svg">
<path d="M29.3331 22.276V27.9486C29.3331 29.6862 28.7562 31.1719 27.6025 32.4057C26.4487 33.6395 25.0594 34.2564 23.4346 34.2564H6.39462C4.76981 34.2564 3.38053 33.6395 2.22678 32.4057C1.07303 31.1719 0.496155 29.6862 0.496155 27.9486V9.72604C0.496155 7.98847 1.07303 6.50277 2.22678 5.26895C3.38053 4.03513 4.76981 3.41822 6.39462 3.41822H11.6172C11.7947 3.41822 11.9483 3.48758 12.078 3.62629C12.2077 3.765 12.2726 3.92927 12.2726 4.11909C12.2726 4.51333 12.0951 4.74695 11.7401 4.81996C10.6888 5.19959 9.78077 5.63764 9.01616 6.13409C8.87962 6.19249 8.77039 6.22169 8.68846 6.22169H6.39462C5.49346 6.22169 4.72202 6.56483 4.08029 7.2511C3.43856 7.93736 3.11769 8.76234 3.11769 9.72604V27.9486C3.11769 28.9123 3.43856 29.7373 4.08029 30.4236C4.72202 31.1098 5.49346 31.453 6.39462 31.453H23.4346C24.3358 31.453 25.1072 31.1098 25.7489 30.4236C26.3907 29.7373 26.7115 28.9123 26.7115 27.9486V23.2616C26.7115 22.9841 26.8344 22.7724 27.0802 22.6264C27.4625 22.4366 27.8312 22.1665 28.1862 21.816C28.4046 21.5824 28.6436 21.524 28.903 21.6408C29.1897 21.7722 29.3331 21.9839 29.3331 22.276ZM34.187 11.4125L26.3224 19.8229C26.0766 20.1004 25.7694 20.2391 25.4008 20.2391C25.2369 20.2391 25.0663 20.2026 24.8888 20.1296C24.3563 19.8813 24.09 19.4506 24.09 18.8373V14.6321H20.8131C16.4029 14.6321 13.4127 15.5885 11.8425 17.5013C10.2177 19.5017 9.7125 22.9549 10.3269 27.861C10.3679 28.1968 10.2313 28.4451 9.91731 28.6057C9.80808 28.6349 9.72616 28.6495 9.67154 28.6495C9.45308 28.6495 9.27558 28.5546 9.13904 28.3648C9.0025 28.1603 8.85914 27.934 8.70894 27.6858C8.55875 27.4376 8.28909 26.9375 7.89995 26.1855C7.51082 25.4335 7.17289 24.7071 6.88616 24.0062C6.59942 23.3054 6.33659 22.4731 6.09765 21.5094C5.8587 20.5457 5.73923 19.655 5.73923 18.8373C5.73923 18.1219 5.76313 17.4575 5.81091 16.8442C5.8587 16.231 5.95428 15.5739 6.09765 14.873C6.24101 14.1722 6.43216 13.5297 6.67111 12.9457C6.91005 12.3616 7.23092 11.7666 7.6337 11.1606C8.03649 10.5547 8.50414 10.0144 9.03664 9.53987C9.56914 9.06532 10.2143 8.61633 10.9721 8.19289C11.7299 7.76945 12.5798 7.41536 13.5219 7.13063C14.464 6.84591 15.5529 6.62323 16.7886 6.46262C18.0243 6.302 19.3658 6.22169 20.8131 6.22169H24.09V2.01648C24.09 1.40322 24.3563 0.972481 24.8888 0.724257C25.0663 0.65125 25.2369 0.614746 25.4008 0.614746C25.7558 0.614746 26.063 0.75346 26.3224 1.03089L34.187 9.44131C34.4464 9.71874 34.5762 10.0473 34.5762 10.4269C34.5762 10.8065 34.4464 11.1351 34.187 11.4125Z" fill="black"/>
</svg>
