<svg width="86" height="87" viewBox="0 0 86 87" fill="none" xmlns="http://www.w3.org/2000/svg">
<path d="M31.0016 84.7252C37.9154 84.7252 43.5266 79.114 43.5266 72.2002V59.6752H31.0016C24.0878 59.6752 18.4766 65.2864 18.4766 72.2002C18.4766 79.114 24.0878 84.7252 31.0016 84.7252Z" fill="#4C5652"/>
<path d="M18.4766 43.8496C18.4766 36.9358 24.0878 31.3246 31.0016 31.3246H43.5266V56.3746H31.0016C24.0878 56.3746 18.4766 50.7634 18.4766 43.8496Z" fill="#67616D"/>
<path d="M18.4751 15.5C18.4751 8.58618 24.0863 2.97498 31.0001 2.97498H43.5251V28.025H31.0001C24.0863 28.025 18.4751 22.4138 18.4751 15.5Z" fill="#5A524F"/>
<path d="M43.5264 2.97498H56.0514C62.9652 2.97498 68.5764 8.58618 68.5764 15.5C68.5764 22.4138 62.9652 28.025 56.0514 28.025H43.5264V2.97498Z" fill="#675F5E"/>
<path d="M68.5764 43.8496C68.5764 50.7634 62.9652 56.3746 56.0514 56.3746C49.1376 56.3746 43.5264 50.7634 43.5264 43.8496C43.5264 36.9358 49.1376 31.3246 56.0514 31.3246C62.9652 31.3246 68.5764 36.9358 68.5764 43.8496Z" fill="#5D696D"/>
</svg>
