<svg width="86" height="87" viewBox="0 0 86 87" fill="none" xmlns="http://www.w3.org/2000/svg">
<path d="M80.9854 40.6785L46.4931 8.37055C44.508 6.50982 41.2862 6.50982 39.2986 8.37055L32.1361 15.0798L41.222 23.5908C43.3335 22.9225 45.7547 23.3709 47.4378 24.9474C49.1289 26.5341 49.6041 28.8215 48.8733 30.8057L57.6297 39.0083C59.7482 38.3246 62.1926 38.7669 63.8846 40.3545C66.2494 42.5687 66.2494 46.1575 63.8846 48.3732C61.5192 50.5892 57.688 50.5892 55.3214 48.3732C53.5427 46.7053 53.1032 44.2583 54.0037 42.2057L45.8377 34.5563L45.8368 54.6862C46.4287 54.9603 46.9694 55.3225 47.4378 55.7586C49.8025 57.9729 49.8025 61.5619 47.4378 63.7794C45.0724 65.9942 41.2393 65.9942 38.8773 63.7794C36.5126 61.5619 36.5126 57.9732 38.8773 55.7589C39.444 55.2278 40.1175 54.8072 40.8588 54.5214V34.204C40.1164 33.9201 39.4426 33.4992 38.8773 32.9665C37.0857 31.2905 36.6549 28.8279 37.5729 26.7671L28.6163 18.3763L4.96561 40.5291C2.97826 42.3915 2.97826 45.4097 4.96561 47.2707L39.4584 79.5792C41.4442 81.4403 44.6653 81.4403 46.6536 79.5792L80.985 47.4207C82.9718 45.5591 82.9718 42.5392 80.985 40.6785" fill="#DE4C36"/>
</svg>
