<svg width="86" height="87" viewBox="0 0 86 87" fill="none" xmlns="http://www.w3.org/2000/svg">
<path d="M16.1616 73.2701L10.1895 6.29059H75.8108L69.8308 73.2595L42.9603 80.7093L16.1616 73.2701Z" fill="#E44F26"/>
<path d="M43 75.0163L64.7143 68.9964L69.8226 11.7684H43V75.0163Z" fill="#F1662A"/>
<path d="M42.9999 36.6083H32.1294L31.3799 28.1963H42.9999V19.981H22.4019L22.5985 22.187L24.6158 44.8236H42.9999V36.6083ZM42.9999 57.9426L42.9627 57.9532L33.8145 55.4841L33.2298 48.9326H24.9826L26.1334 61.8283L42.9627 66.5007L42.9999 66.4901V57.9426Z" fill="#EBEBEB"/>
<path d="M42.9707 36.6083V44.8236H53.0863L52.1348 55.4788L42.9707 57.9505V66.4981L59.8133 61.8283L59.9355 60.4409L61.8651 38.8143L62.0671 36.6083H42.9707ZM42.9707 19.981V28.1963H62.8139L62.9787 26.3518L63.3535 22.187L63.5501 19.981H42.9707Z" fill="white"/>
</svg>
