<svg width="26" height="25" viewBox="0 0 26 25" fill="none" xmlns="http://www.w3.org/2000/svg">
<path d="M0.545486 0.524505C0.717961 0.358244 0.922854 0.226334 1.14843 0.13633C1.37401 0.046327 1.61583 0 1.86006 0C2.10428 0 2.34611 0.046327 2.57168 0.13633C2.79726 0.226334 3.00215 0.358244 3.17463 0.524505L13.0005 9.97602L22.8263 0.524505C22.999 0.358513 23.2039 0.226841 23.4295 0.137006C23.655 0.047172 23.8968 0.000934738 24.1409 0.000934738C24.3851 0.000934738 24.6268 0.047172 24.8524 0.137006C25.0779 0.226841 25.2829 0.358513 25.4555 0.524505C25.6281 0.690498 25.7651 0.887559 25.8585 1.10444C25.9519 1.32132 26 1.55377 26 1.78852C26 2.02326 25.9519 2.25572 25.8585 2.47259C25.7651 2.68947 25.6281 2.88653 25.4555 3.05253L15.6259 12.5005L25.4555 21.9484C25.6281 22.1144 25.7651 22.3115 25.8585 22.5283C25.9519 22.7452 26 22.9777 26 23.2124C26 23.4472 25.9519 23.6796 25.8585 23.8965C25.7651 24.1134 25.6281 24.3104 25.4555 24.4764C25.2829 24.6424 25.0779 24.7741 24.8524 24.8639C24.6268 24.9538 24.3851 25 24.1409 25C23.8968 25 23.655 24.9538 23.4295 24.8639C23.2039 24.7741 22.999 24.6424 22.8263 24.4764L13.0005 15.0249L3.17463 24.4764C3.002 24.6424 2.79705 24.7741 2.5715 24.8639C2.34594 24.9538 2.1042 25 1.86006 25C1.61592 25 1.37417 24.9538 1.14862 24.8639C0.923061 24.7741 0.718117 24.6424 0.545486 24.4764C0.372854 24.3104 0.235914 24.1134 0.142487 23.8965C0.0490589 23.6796 0.000972127 23.4472 0.000972127 23.2124C0.000972127 22.9777 0.0490589 22.7452 0.142487 22.5283C0.235914 22.3115 0.372854 22.1144 0.545486 21.9484L10.3751 12.5005L0.545486 3.05253C0.372574 2.88669 0.235387 2.68967 0.141784 2.47277C0.0481801 2.25587 0 2.02335 0 1.78852C0 1.55368 0.0481801 1.32116 0.141784 1.10426C0.235387 0.887359 0.372574 0.690347 0.545486 0.524505Z" fill="#EFFAFB"/>
</svg>
