<svg width="76" height="84" viewBox="0 0 76 84" fill="none" xmlns="http://www.w3.org/2000/svg">
<path d="M5.42165 34.705L34.939 5.34764C42.8104 0.676059 49.0446 4.0411 51.0177 6.30756C55.5772 10.8672 66.4098 20.871 70.7759 26.2258C75.1421 31.5805 72.9988 38.5168 70.8559 40.8645L51.4177 60.3028L42.6185 51.4236L60.5369 33.6651L42.6185 15.6667L15.8208 42.5443L42.6185 69.102L51.4177 60.3828L60.4569 69.342C59.6569 70.1419 57.7864 72.2752 51.0177 78.7011C44.6983 84.7006 36.539 81.1542 33.9792 78.7011C26.9399 71.7417 11.3393 57.0707 5.74178 50.3037C0.382105 43.8242 3.26188 37.0248 5.42165 34.705Z" fill="url(#paint0_linear_616_157)" stroke="#43720A" stroke-width="4"/>
<defs>
<linearGradient id="paint0_linear_616_157" x1="38.0001" y1="82" x2="38.0001" y2="3" gradientUnits="userSpaceOnUse">
<stop stop-color="#7DAC29"/>
<stop offset="1" stop-color="#12151C"/>
</linearGradient>
</defs>
</svg>
