<svg width="50" height="51" viewBox="0 0 50 51" fill="none" xmlns="http://www.w3.org/2000/svg">
<path d="M22.9167 13.1547V40.9839C22.9167 43.0087 21.2752 44.6501 19.2504 44.6501C17.7009 44.6501 16.3188 43.6761 15.7977 42.217L11.326 29.4061M37.5 27.9835C40.9518 27.9835 43.75 25.1853 43.75 21.7335C43.75 18.2817 40.9518 15.4835 37.5 15.4835M11.326 29.4061C8.34229 28.1378 6.25 25.18 6.25 21.7335C6.25 17.1311 9.98095 13.4001 14.5833 13.4001H18.4002C26.9432 13.4001 34.2852 10.8291 37.5 7.15015L37.5 36.3168C34.2852 32.6378 26.9432 30.0668 18.4002 30.0668L14.5833 30.0668C13.4275 30.0668 12.3266 29.8315 11.326 29.4061Z" stroke="url(#paint0_linear_626_569)" stroke-width="3" stroke-linecap="round" stroke-linejoin="round"/>
<defs>
<linearGradient id="paint0_linear_626_569" x1="39.6949" y1="25.9001" x2="6.25" y2="25.9001" gradientUnits="userSpaceOnUse">
<stop stop-color="#FFE600"/>
<stop offset="1" stop-color="#F54601" stop-opacity="0.921357"/>
</linearGradient>
</defs>
</svg>
