<svg width="35" height="35" viewBox="0 0 35 35" fill="none" xmlns="http://www.w3.org/2000/svg">
<path d="M29.6154 22.5358V28.4375C29.6154 30.2452 29.0229 31.7909 27.838 33.0745C26.6531 34.3582 25.2264 35 23.5577 35H6.05769C4.38902 35 2.96224 34.3582 1.77734 33.0745C0.592448 31.7909 0 30.2452 0 28.4375V9.47917C0 7.67144 0.592448 6.12576 1.77734 4.84212C2.96224 3.55849 4.38902 2.91667 6.05769 2.91667H11.4213C11.6036 2.91667 11.7613 2.98882 11.8945 3.13314C12.0277 3.27745 12.0944 3.44835 12.0944 3.64583C12.0944 4.05599 11.9121 4.29905 11.5475 4.375C10.4677 4.76997 9.53526 5.22569 8.75 5.74219C8.60978 5.80295 8.4976 5.83333 8.41346 5.83333H6.05769C5.13221 5.83333 4.33994 6.19032 3.68089 6.9043C3.02183 7.61827 2.69231 8.47656 2.69231 9.47917V28.4375C2.69231 29.4401 3.02183 30.2984 3.68089 31.0124C4.33994 31.7263 5.13221 32.0833 6.05769 32.0833H23.5577C24.4832 32.0833 25.2754 31.7263 25.9345 31.0124C26.5935 30.2984 26.9231 29.4401 26.9231 28.4375V23.5612C26.9231 23.2726 27.0493 23.0523 27.3017 22.9004C27.6943 22.7029 28.0729 22.4219 28.4375 22.0573C28.6619 21.8142 28.9073 21.7535 29.1737 21.875C29.4681 22.0117 29.6154 22.232 29.6154 22.5358ZM34.6004 11.2337L26.5234 19.9837C26.271 20.2724 25.9555 20.4167 25.5769 20.4167C25.4087 20.4167 25.2334 20.3787 25.0511 20.3027C24.5042 20.0445 24.2308 19.5964 24.2308 18.9583V14.5833H20.8654C16.3361 14.5833 13.2652 15.5783 11.6526 17.5684C9.98397 19.6495 9.46514 23.2422 10.0962 28.3464C10.1382 28.6957 9.998 28.954 9.67548 29.1211C9.5633 29.1515 9.47917 29.1667 9.42308 29.1667C9.19872 29.1667 9.01643 29.0679 8.8762 28.8704C8.73598 28.6578 8.58874 28.4223 8.43449 28.1641C8.28025 27.9058 8.00331 27.3855 7.60367 26.6032C7.20403 25.8209 6.85697 25.0651 6.5625 24.3359C6.26803 23.6068 5.9981 22.7409 5.7527 21.7383C5.50731 20.7357 5.38462 19.809 5.38462 18.9583C5.38462 18.214 5.40915 17.5228 5.45823 16.8848C5.50731 16.2467 5.60547 15.5632 5.7527 14.834C5.89994 14.1048 6.09625 13.4364 6.34165 12.8288C6.58704 12.2211 6.91657 11.6021 7.33023 10.9717C7.74389 10.3413 8.22416 9.77919 8.77103 9.28548C9.31791 8.79178 9.98047 8.32465 10.7587 7.88411C11.537 7.44358 12.4099 7.0752 13.3774 6.77897C14.345 6.48275 15.4632 6.25109 16.7323 6.08398C18.0013 5.91688 19.379 5.83333 20.8654 5.83333H24.2308V1.45833C24.2308 0.820312 24.5042 0.372179 25.0511 0.113932C25.2334 0.0379774 25.4087 0 25.5769 0C25.9415 0 26.257 0.144314 26.5234 0.432943L34.6004 9.18294C34.8668 9.47157 35 9.81337 35 10.2083C35 10.6033 34.8668 10.9451 34.6004 11.2337Z" fill="#FFFAFA"/>
</svg>
